
<group>
seq_length=2

<region>
sample=..\Samples\noises\stuk01.wav
lokey=72
hikey=72
pitch_keycenter=72

<region>
sample=..\Samples\noises\stuk02.wav
lokey=72
hikey=72
seq_position=2
pitch_keycenter=72

<region>
sample=..\Samples\noises\stuk03.wav
lokey=73
hikey=73
pitch_keycenter=73

<region>
sample=..\Samples\noises\stuk04.wav
lokey=73
hikey=73
seq_position=2
pitch_keycenter=73

<region>
sample=..\Samples\noises\stuk05.wav
lokey=74
hikey=74
pitch_keycenter=74

<region>
sample=..\Samples\noises\stuk06.wav
lokey=74
hikey=74
seq_position=2
pitch_keycenter=74

<region>
sample=..\Samples\noises\stuk07.wav
lokey=75
hikey=75
pitch_keycenter=75

<region>
sample=..\Samples\noises\stuk08.wav
lokey=75
hikey=75
seq_position=2
pitch_keycenter=75

<region>
sample=..\Samples\noises\stuk09.wav
lokey=76
hikey=76
pitch_keycenter=76

<region>
sample=..\Samples\noises\stuk10.wav
lokey=76
hikey=76
seq_position=2
pitch_keycenter=76

<region>
sample=..\Samples\noises\stuk11.wav
lokey=77
hikey=77
pitch_keycenter=77

<region>
sample=..\Samples\noises\stuk12.wav
lokey=78
hikey=78
pitch_keycenter=78

<region>
sample=..\Samples\noises\stuk13.wav
lokey=79
hikey=79
pitch_keycenter=79

<region>
sample=..\Samples\noises\stuk14.wav
lokey=80
hikey=80
pitch_keycenter=80

<region>
sample=..\Samples\noises\stuk15.wav
lokey=81
hikey=81
pitch_keycenter=81

<region>
sample=..\Samples\noises\stuk16.wav
lokey=83
hikey=83
pitch_keycenter=83

<region>
sample=..\Samples\noises\stuk17.wav
lokey=82
hikey=82
pitch_keycenter=82

//========================
<group>
seq_length=4
hicc107=11

<region>
sample=..\Samples\pizzcato\C1_1.wav
lokey=24
hikey=25
pitch_keycenter=24

<region>
sample=..\Samples\pizzcato\C1_2.wav
lokey=24
hikey=25
seq_position=2
pitch_keycenter=24

<region>
sample=..\Samples\pizzcato\C1_3.wav
lokey=24
hikey=25
seq_position=3
pitch_keycenter=24

<region>
sample=..\Samples\pizzcato\C1_4.wav
lokey=24
hikey=25
seq_position=4
pitch_keycenter=24

<region>
sample=..\Samples\pizzcato\Eb1_1.wav
lokey=26
hikey=28
pitch_keycenter=27

<region>
sample=..\Samples\pizzcato\Eb1_2.wav
lokey=26
hikey=28
seq_position=2
pitch_keycenter=27

<region>
sample=..\Samples\pizzcato\Eb1_3.wav
lokey=26
hikey=28
seq_position=3
pitch_keycenter=27

<region>
sample=..\Samples\pizzcato\Eb1_4.wav
lokey=26
hikey=28
seq_position=4
pitch_keycenter=27

<region>
sample=..\Samples\pizzcato\Gb1_1.wav
lokey=29
hikey=31
pitch_keycenter=30

<region>
sample=..\Samples\pizzcato\Gb1_2.wav
lokey=29
hikey=31
seq_position=2
pitch_keycenter=30

<region>
sample=..\Samples\pizzcato\Gb1_3.wav
lokey=29
hikey=31
seq_position=3
pitch_keycenter=30

<region>
sample=..\Samples\pizzcato\Gb1_4.wav
lokey=29
hikey=31
seq_position=4
pitch_keycenter=30

<region>
sample=..\Samples\pizzcato\A1_1.wav
lokey=32
hikey=34
pitch_keycenter=33

<region>
sample=..\Samples\pizzcato\A1_2.wav
lokey=32
hikey=34
seq_position=2
pitch_keycenter=33

<region>
sample=..\Samples\pizzcato\A1_3.wav
lokey=32
hikey=34
seq_position=3
pitch_keycenter=33

<region>
sample=..\Samples\pizzcato\A1_4.wav
lokey=32
hikey=34
seq_position=4
pitch_keycenter=33

<region>
sample=..\Samples\pizzcato\C2_1.wav
lokey=35
hikey=37
pitch_keycenter=36

<region>
sample=..\Samples\pizzcato\C2_2.wav
lokey=35
hikey=37
seq_position=2
pitch_keycenter=36

<region>
sample=..\Samples\pizzcato\C2_3.wav
lokey=35
hikey=37
seq_position=3
pitch_keycenter=36

<region>
sample=..\Samples\pizzcato\C2_4.wav
lokey=35
hikey=37
seq_position=4
pitch_keycenter=36

<region>
sample=..\Samples\pizzcato\Eb2_1.wav
lokey=38
hikey=40
pitch_keycenter=39

<region>
sample=..\Samples\pizzcato\Eb2_2.wav
lokey=38
hikey=40
seq_position=2
pitch_keycenter=39

<region>
sample=..\Samples\pizzcato\Eb2_3.wav
lokey=38
hikey=40
seq_position=3
pitch_keycenter=39

<region>
sample=..\Samples\pizzcato\Eb2_4.wav
lokey=38
hikey=40
seq_position=4
pitch_keycenter=39

<region>
sample=..\Samples\pizzcato\Gb2_1.wav
lokey=41
hikey=43
pitch_keycenter=42

<region>
sample=..\Samples\pizzcato\Gb2_2.wav
lokey=41
hikey=43
seq_position=2
pitch_keycenter=42

<region>
sample=..\Samples\pizzcato\Gb2_3.wav
lokey=41
hikey=43
seq_position=3
pitch_keycenter=42

<region>
sample=..\Samples\pizzcato\Gb2_4.wav
lokey=41
hikey=43
seq_position=4
pitch_keycenter=42

<region>
sample=..\Samples\pizzcato\A2_1.wav
lokey=44
hikey=46
pitch_keycenter=45

<region>
sample=..\Samples\pizzcato\A2_2.wav
lokey=44
hikey=46
seq_position=2
pitch_keycenter=45

<region>
sample=..\Samples\pizzcato\A2_3.wav
lokey=44
hikey=46
seq_position=3
pitch_keycenter=45

<region>
sample=..\Samples\pizzcato\A2_4.wav
lokey=44
hikey=46
seq_position=4
pitch_keycenter=45

<region>
sample=..\Samples\pizzcato\C3_1.wav
lokey=47
hikey=49
pitch_keycenter=48

<region>
sample=..\Samples\pizzcato\C3_2.wav
lokey=47
hikey=49
seq_position=2
pitch_keycenter=48

<region>
sample=..\Samples\pizzcato\C3_3.wav
lokey=47
hikey=49
seq_position=3
pitch_keycenter=48

<region>
sample=..\Samples\pizzcato\C3_4.wav
lokey=47
hikey=49
seq_position=4
pitch_keycenter=48

<region>
sample=..\Samples\pizzcato\Eb3_1.wav
lokey=50
hikey=52
pitch_keycenter=51

<region>
sample=..\Samples\pizzcato\Eb3_2.wav
lokey=50
hikey=52
seq_position=2
pitch_keycenter=51

<region>
sample=..\Samples\pizzcato\Eb3_3.wav
lokey=50
hikey=52
seq_position=3
pitch_keycenter=51

<region>
sample=..\Samples\pizzcato\Eb3_4.wav
lokey=50
hikey=52
seq_position=4
pitch_keycenter=51

<region>
sample=..\Samples\pizzcato\Gb3_1.wav
lokey=53
hikey=55
pitch_keycenter=54

<region>
sample=..\Samples\pizzcato\Gb3_2.wav
lokey=53
hikey=55
seq_position=2
pitch_keycenter=54

<region>
sample=..\Samples\pizzcato\Gb3_3.wav
lokey=53
hikey=55
seq_position=3
pitch_keycenter=54

<region>
sample=..\Samples\pizzcato\Gb3_4.wav
lokey=53
hikey=55
seq_position=4
pitch_keycenter=54

<region>
sample=..\Samples\pizzcato\A3_1.wav
lokey=56
hikey=58
pitch_keycenter=57

<region>
sample=..\Samples\pizzcato\A3_2.wav
lokey=56
hikey=58
seq_position=2
pitch_keycenter=57

<region>
sample=..\Samples\pizzcato\A3_3.wav
lokey=56
hikey=58
seq_position=3
pitch_keycenter=57

<region>
sample=..\Samples\pizzcato\A3_4.wav
lokey=56
hikey=58
seq_position=4
pitch_keycenter=57

<region>
sample=..\Samples\pizzcato\C4_1.wav
lokey=59
hikey=67

<region>
sample=..\Samples\pizzcato\C4_2.wav
lokey=59
hikey=67
seq_position=2

<region>
sample=..\Samples\pizzcato\C4_3.wav
lokey=59
hikey=67
seq_position=3

<region>
sample=..\Samples\pizzcato\C4_4.wav
lokey=59
hikey=67
seq_position=4
